<svg width="47" height="45" viewBox="0 0 47 45" fill="none" xmlns="http://www.w3.org/2000/svg">
<path d="M45.9655 44.3284C46.5013 44.3284 46.9357 43.894 46.9357 43.3581C46.9357 42.8222 46.5013 42.3878 45.9655 42.3878C45.4296 42.3878 44.9952 42.8222 44.9952 43.3581C44.9952 43.894 45.4296 44.3284 45.9655 44.3284Z" fill="#64CCE3"/>
<path d="M45.9655 35.9408C46.5013 35.9408 46.9357 35.5064 46.9357 34.9705C46.9357 34.4347 46.5013 34.0002 45.9655 34.0002C45.4296 34.0002 44.9952 34.4347 44.9952 34.9705C44.9952 35.5064 45.4296 35.9408 45.9655 35.9408Z" fill="#64CCE3"/>
<path d="M45.9655 27.5552C46.5013 27.5552 46.9357 27.1208 46.9357 26.5849C46.9357 26.049 46.5013 25.6146 45.9655 25.6146C45.4296 25.6146 44.9952 26.049 44.9952 26.5849C44.9952 27.1208 45.4296 27.5552 45.9655 27.5552Z" fill="#64CCE3"/>
<path d="M45.9655 19.2385C46.5013 19.2385 46.9357 18.8041 46.9357 18.2683C46.9357 17.7324 46.5013 17.298 45.9655 17.298C45.4296 17.298 44.9952 17.7324 44.9952 18.2683C44.9952 18.8041 45.4296 19.2385 45.9655 19.2385Z" fill="#64CCE3"/>
<path d="M45.9655 10.853C46.5013 10.853 46.9357 10.4186 46.9357 9.88275C46.9357 9.34688 46.5013 8.91248 45.9655 8.91248C45.4296 8.91248 44.9952 9.34688 44.9952 9.88275C44.9952 10.4186 45.4296 10.853 45.9655 10.853Z" fill="#64CCE3"/>
<path d="M45.9655 2.53638C46.5013 2.53638 46.9357 2.10197 46.9357 1.5661C46.9357 1.03023 46.5013 0.595825 45.9655 0.595825C45.4296 0.595825 44.9952 1.03023 44.9952 1.5661C44.9952 2.10197 45.4296 2.53638 45.9655 2.53638Z" fill="#64CCE3"/>
<path d="M37.024 44.3283C37.5599 44.3283 37.9943 43.8938 37.9943 43.358C37.9943 42.8221 37.5599 42.3877 37.024 42.3877C36.4881 42.3877 36.0537 42.8221 36.0537 43.358C36.0537 43.8938 36.4881 44.3283 37.024 44.3283Z" fill="#64CCE3"/>
<path d="M37.024 35.9407C37.5599 35.9407 37.9943 35.5063 37.9943 34.9704C37.9943 34.4345 37.5599 34.0001 37.024 34.0001C36.4881 34.0001 36.0537 34.4345 36.0537 34.9704C36.0537 35.5063 36.4881 35.9407 37.024 35.9407Z" fill="#64CCE3"/>
<path d="M37.024 27.5551C37.5599 27.5551 37.9943 27.1207 37.9943 26.5848C37.9943 26.0489 37.5599 25.6145 37.024 25.6145C36.4881 25.6145 36.0537 26.0489 36.0537 26.5848C36.0537 27.1207 36.4881 27.5551 37.024 27.5551Z" fill="#64CCE3"/>
<path d="M37.024 19.2384C37.5599 19.2384 37.9943 18.804 37.9943 18.2681C37.9943 17.7323 37.5599 17.2979 37.024 17.2979C36.4881 17.2979 36.0537 17.7323 36.0537 18.2681C36.0537 18.804 36.4881 19.2384 37.024 19.2384Z" fill="#64CCE3"/>
<path d="M37.024 10.8529C37.5599 10.8529 37.9943 10.4185 37.9943 9.88263C37.9943 9.34676 37.5599 8.91235 37.024 8.91235C36.4881 8.91235 36.0537 9.34676 36.0537 9.88263C36.0537 10.4185 36.4881 10.8529 37.024 10.8529Z" fill="#64CCE3"/>
<path d="M37.0244 2.53626C37.5602 2.53626 37.9946 2.10185 37.9946 1.56598C37.9946 1.03011 37.5602 0.595703 37.0244 0.595703C36.4885 0.595703 36.0541 1.03011 36.0541 1.56598C36.0541 2.10185 36.4885 2.53626 37.0244 2.53626Z" fill="#64CCE3"/>
<path d="M28.0143 44.3283C28.5502 44.3283 28.9846 43.8938 28.9846 43.358C28.9846 42.8221 28.5502 42.3877 28.0143 42.3877C27.4784 42.3877 27.044 42.8221 27.044 43.358C27.044 43.8938 27.4784 44.3283 28.0143 44.3283Z" fill="#64CCE3"/>
<path d="M28.0143 35.9407C28.5502 35.9407 28.9846 35.5063 28.9846 34.9704C28.9846 34.4345 28.5502 34.0001 28.0143 34.0001C27.4784 34.0001 27.044 34.4345 27.044 34.9704C27.044 35.5063 27.4784 35.9407 28.0143 35.9407Z" fill="#64CCE3"/>
<path d="M28.0143 27.5551C28.5502 27.5551 28.9846 27.1207 28.9846 26.5848C28.9846 26.0489 28.5502 25.6145 28.0143 25.6145C27.4784 25.6145 27.044 26.0489 27.044 26.5848C27.044 27.1207 27.4784 27.5551 28.0143 27.5551Z" fill="#64CCE3"/>
<path d="M28.0143 19.2384C28.5502 19.2384 28.9846 18.804 28.9846 18.2681C28.9846 17.7323 28.5502 17.2979 28.0143 17.2979C27.4784 17.2979 27.044 17.7323 27.044 18.2681C27.044 18.804 27.4784 19.2384 28.0143 19.2384Z" fill="#64CCE3"/>
<path d="M28.0143 10.8529C28.5502 10.8529 28.9846 10.4185 28.9846 9.88263C28.9846 9.34676 28.5502 8.91235 28.0143 8.91235C27.4784 8.91235 27.044 9.34676 27.044 9.88263C27.044 10.4185 27.4784 10.8529 28.0143 10.8529Z" fill="#64CCE3"/>
<path d="M28.0147 2.53626C28.5506 2.53626 28.985 2.10185 28.985 1.56598C28.985 1.03011 28.5506 0.595703 28.0147 0.595703C27.4788 0.595703 27.0444 1.03011 27.0444 1.56598C27.0444 2.10185 27.4788 2.53626 28.0147 2.53626Z" fill="#64CCE3"/>
<path d="M19.0046 44.3283C19.5404 44.3283 19.9749 43.8938 19.9749 43.358C19.9749 42.8221 19.5404 42.3877 19.0046 42.3877C18.4687 42.3877 18.0343 42.8221 18.0343 43.358C18.0343 43.8938 18.4687 44.3283 19.0046 44.3283Z" fill="#64CCE3"/>
<path d="M19.0046 35.9407C19.5404 35.9407 19.9749 35.5063 19.9749 34.9704C19.9749 34.4345 19.5404 34.0001 19.0046 34.0001C18.4687 34.0001 18.0343 34.4345 18.0343 34.9704C18.0343 35.5063 18.4687 35.9407 19.0046 35.9407Z" fill="#64CCE3"/>
<path d="M19.0046 27.5551C19.5404 27.5551 19.9749 27.1207 19.9749 26.5848C19.9749 26.0489 19.5404 25.6145 19.0046 25.6145C18.4687 25.6145 18.0343 26.0489 18.0343 26.5848C18.0343 27.1207 18.4687 27.5551 19.0046 27.5551Z" fill="#64CCE3"/>
<path d="M19.0046 19.2384C19.5404 19.2384 19.9749 18.804 19.9749 18.2681C19.9749 17.7323 19.5404 17.2979 19.0046 17.2979C18.4687 17.2979 18.0343 17.7323 18.0343 18.2681C18.0343 18.804 18.4687 19.2384 19.0046 19.2384Z" fill="#64CCE3"/>
<path d="M19.0046 10.8529C19.5404 10.8529 19.9749 10.4185 19.9749 9.88263C19.9749 9.34676 19.5404 8.91235 19.0046 8.91235C18.4687 8.91235 18.0343 9.34676 18.0343 9.88263C18.0343 10.4185 18.4687 10.8529 19.0046 10.8529Z" fill="#64CCE3"/>
<path d="M19.0052 2.53626C19.5411 2.53626 19.9755 2.10185 19.9755 1.56598C19.9755 1.03011 19.5411 0.595703 19.0052 0.595703C18.4693 0.595703 18.0349 1.03011 18.0349 1.56598C18.0349 2.10185 18.4693 2.53626 19.0052 2.53626Z" fill="#64CCE3"/>
<path d="M9.99481 44.3283C10.5307 44.3283 10.9651 43.8938 10.9651 43.358C10.9651 42.8221 10.5307 42.3877 9.99481 42.3877C9.45894 42.3877 9.02454 42.8221 9.02454 43.358C9.02454 43.8938 9.45894 44.3283 9.99481 44.3283Z" fill="#64CCE3"/>
<path d="M9.99481 35.9407C10.5307 35.9407 10.9651 35.5063 10.9651 34.9704C10.9651 34.4345 10.5307 34.0001 9.99481 34.0001C9.45894 34.0001 9.02454 34.4345 9.02454 34.9704C9.02454 35.5063 9.45894 35.9407 9.99481 35.9407Z" fill="#64CCE3"/>
<path d="M9.99481 27.5551C10.5307 27.5551 10.9651 27.1207 10.9651 26.5848C10.9651 26.0489 10.5307 25.6145 9.99481 25.6145C9.45894 25.6145 9.02454 26.0489 9.02454 26.5848C9.02454 27.1207 9.45894 27.5551 9.99481 27.5551Z" fill="#64CCE3"/>
<path d="M9.99481 19.2384C10.5307 19.2384 10.9651 18.804 10.9651 18.2681C10.9651 17.7323 10.5307 17.2979 9.99481 17.2979C9.45894 17.2979 9.02454 17.7323 9.02454 18.2681C9.02454 18.804 9.45894 19.2384 9.99481 19.2384Z" fill="#64CCE3"/>
<path d="M9.99481 10.8529C10.5307 10.8529 10.9651 10.4185 10.9651 9.88263C10.9651 9.34676 10.5307 8.91235 9.99481 8.91235C9.45894 8.91235 9.02454 9.34676 9.02454 9.88263C9.02454 10.4185 9.45894 10.8529 9.99481 10.8529Z" fill="#64CCE3"/>
<path d="M9.99561 2.53626C10.5315 2.53626 10.9659 2.10185 10.9659 1.56598C10.9659 1.03011 10.5315 0.595703 9.99561 0.595703C9.45974 0.595703 9.02533 1.03011 9.02533 1.56598C9.02533 2.10185 9.45974 2.53626 9.99561 2.53626Z" fill="#64CCE3"/>
<path d="M1.05402 44.3283C1.58989 44.3283 2.0243 43.8938 2.0243 43.358C2.0243 42.8221 1.58989 42.3877 1.05402 42.3877C0.518148 42.3877 0.0837402 42.8221 0.0837402 43.358C0.0837402 43.8938 0.518148 44.3283 1.05402 44.3283Z" fill="#64CCE3"/>
<path d="M1.05402 35.9407C1.58989 35.9407 2.0243 35.5063 2.0243 34.9704C2.0243 34.4345 1.58989 34.0001 1.05402 34.0001C0.518148 34.0001 0.0837402 34.4345 0.0837402 34.9704C0.0837402 35.5063 0.518148 35.9407 1.05402 35.9407Z" fill="#64CCE3"/>
<path d="M1.05402 27.5551C1.58989 27.5551 2.0243 27.1207 2.0243 26.5848C2.0243 26.0489 1.58989 25.6145 1.05402 25.6145C0.518148 25.6145 0.0837402 26.0489 0.0837402 26.5848C0.0837402 27.1207 0.518148 27.5551 1.05402 27.5551Z" fill="#64CCE3"/>
<path d="M1.05402 19.2384C1.58989 19.2384 2.0243 18.804 2.0243 18.2681C2.0243 17.7323 1.58989 17.2979 1.05402 17.2979C0.518148 17.2979 0.0837402 17.7323 0.0837402 18.2681C0.0837402 18.804 0.518148 19.2384 1.05402 19.2384Z" fill="#64CCE3"/>
<path d="M1.05402 10.8529C1.58989 10.8529 2.0243 10.4185 2.0243 9.88263C2.0243 9.34676 1.58989 8.91235 1.05402 8.91235C0.518148 8.91235 0.0837402 9.34676 0.0837402 9.88263C0.0837402 10.4185 0.518148 10.8529 1.05402 10.8529Z" fill="#64CCE3"/>
<path d="M1.05408 2.53626C1.58995 2.53626 2.02436 2.10185 2.02436 1.56598C2.02436 1.03011 1.58995 0.595703 1.05408 0.595703C0.518209 0.595703 0.0838013 1.03011 0.0838013 1.56598C0.0838013 2.10185 0.518209 2.53626 1.05408 2.53626Z" fill="#64CCE3"/>
</svg>
